<?xml version="1.0" encoding="utf-8" ?>
<svg baseProfile="full" height="360px" version="1.1" viewBox="0 0 360 360" width="360px" xmlns="http://www.w3.org/2000/svg" xmlns:ev="http://www.w3.org/2001/xml-events" xmlns:xlink="http://www.w3.org/1999/xlink"><defs /><rect fill="white" height="360" width="360" x="0" y="0" /><path d="M 289 193 L 275 194 L 266 205 L 242 311 L 244 319 L 251 326 L 260 329 L 271 328 L 278 321 L 303 215 L 301 201 Z" fill="black" stroke="none" /><path d="M 70 193 L 58 201 L 56 215 L 79 316 L 86 327 L 103 328 L 114 320 L 116 305 L 94 208 L 90 199 L 84 194 Z" fill="black" stroke="none" /><path d="M 178 175 L 161 264 L 149 215 L 134 250 L 123 229 L 110 251 L 114 266 L 123 251 L 135 274 L 146 243 L 160 298 L 177 216 L 183 299 L 192 309 L 206 234 L 219 281 L 233 251 L 245 264 L 250 241 L 244 246 L 232 227 L 221 254 L 215 209 L 207 202 L 192 268 L 186 184 Z" fill="black" stroke="none" /><path d="M 295 85 L 281 96 L 300 122 L 309 143 L 315 194 L 285 323 L 305 318 L 322 308 L 336 293 L 346 262 L 342 240 L 329 221 L 333 198 L 329 145 L 315 111 Z" fill="black" stroke="none" /><path d="M 65 84 L 44 111 L 31 141 L 26 166 L 30 221 L 17 240 L 13 262 L 25 296 L 44 313 L 74 323 L 44 193 L 45 165 L 53 135 L 78 96 Z" fill="black" stroke="none" /><path d="M 72 74 L 74 85 L 85 94 L 91 94 L 130 69 L 165 60 L 194 60 L 218 65 L 243 76 L 268 94 L 278 92 L 288 77 L 278 65 L 249 46 L 220 35 L 190 30 L 158 31 L 124 40 L 96 54 Z" fill="black" stroke="none" /></svg>